<?xml version="1.0"?>
<svg version="1.1" xmlns="http://www.w3.org/2000/svg" xmlns:xlink="http://www.w3.org/1999/xlink" width="640" height="480">
    <desc iVinci="yes" version="4.6" gridStep="20" showGrid="no" snapToGrid="no" codePlatform="0"/>
    <g id="Layer1" name="Layer 1" opacity="1">
        <g id="Shape1">
            <desc shapeID="1" type="2" basicInfo-basicType="0" basicInfo-roundedRectRadius="12" basicInfo-polygonSides="6" basicInfo-starPoints="5" bounding="rect(-243,-110,486,220)" text="CRU" font-familyName="Helvetica" font-pixelSize="156" font-bold="0" font-underline="0" font-alignment="1" strokeStyle="0" markerStart="0" markerEnd="0" shadowEnabled="0" shadowOffsetX="0" shadowOffsetY="2" shadowBlur="4" shadowOpacity="160" blurEnabled="0" blurRadius="4" transform="matrix(1,0,0,1,263.708,240.5)" pers-center="0,0" pers-size="0,0" pers-start="0,0" pers-end="0,0" locked="0" mesh="" flag=""/>
            <path id="shapePath1" d="M186.739,178.863 C194.56,186.328 198.901,194.809 199.765,204.305 L184.987,204.305 C183.312,197.094 179.973,191.381 174.971,187.166 C169.969,182.951 162.948,180.844 153.909,180.844 C142.89,180.844 133.99,184.716 127.211,192.46 C120.432,200.204 117.042,212.074 117.042,228.07 C117.042,241.172 120.102,251.798 126.221,259.948 C132.34,268.099 141.468,272.174 153.604,272.174 C164.776,272.174 173.282,267.883 179.122,259.301 C182.22,254.781 184.53,248.84 186.054,241.477 L200.831,241.477 C199.511,253.258 195.144,263.135 187.729,271.107 C178.843,280.705 166.858,285.504 151.776,285.504 C138.776,285.504 127.858,281.568 119.022,273.697 C107.394,263.287 101.579,247.215 101.579,225.48 C101.579,208.977 105.946,195.443 114.681,184.881 C124.126,173.404 137.151,167.666 153.757,167.666 C167.925,167.666 178.919,171.398 186.739,178.863 M271.288,221.977 C278.397,221.977 284.021,220.555 288.16,217.711 C292.299,214.867 294.368,209.738 294.368,202.324 C294.368,194.352 291.474,188.918 285.685,186.023 C282.587,184.5 278.448,183.738 273.269,183.738 L236.249,183.738 L236.249,221.977 L271.288,221.977 M221.091,170.713 L272.888,170.713 C281.419,170.713 288.452,171.957 293.987,174.445 C304.499,179.219 309.755,188.029 309.755,200.877 C309.755,207.58 308.371,213.064 305.604,217.33 C302.836,221.596 298.964,225.023 293.987,227.613 C298.354,229.391 301.643,231.727 303.852,234.621 C306.061,237.516 307.292,242.213 307.546,248.713 L308.079,263.719 C308.231,267.984 308.587,271.158 309.146,273.24 C310.06,276.795 311.685,279.08 314.021,280.096 L314.021,282.609 L295.435,282.609 C294.927,281.645 294.521,280.4 294.216,278.877 C293.911,277.354 293.657,274.408 293.454,270.041 L292.54,251.379 C292.185,244.066 289.468,239.166 284.39,236.678 C281.495,235.307 276.95,234.621 270.755,234.621 L236.249,234.621 L236.249,282.609 L221.091,282.609 L221.091,170.713 M348.372,170.713 L348.372,239.877 C348.372,248.002 349.896,254.756 352.942,260.139 C357.462,268.264 365.079,272.326 375.794,272.326 C388.642,272.326 397.376,267.934 401.997,259.148 C404.485,254.375 405.729,247.951 405.729,239.877 L405.729,170.713 L421.116,170.713 L421.116,233.555 C421.116,247.316 419.263,257.904 415.556,265.318 C408.751,278.826 395.903,285.58 377.013,285.58 C358.122,285.58 345.3,278.826 338.546,265.318 C334.839,257.904 332.985,247.316 332.985,233.555 L332.985,170.713 L348.372,170.713 Z" style="stroke:none;fill-rule:nonzero;fill:#000000;fill-opacity:1;"/>
        </g>
        <g id="Shape2">
            <desc shapeID="2" type="2" basicInfo-basicType="0" basicInfo-roundedRectRadius="12" basicInfo-polygonSides="6" basicInfo-starPoints="5" bounding="rect(-83,-77.5,166,155)" text="D" font-familyName="Helvetica" font-pixelSize="156" font-bold="0" font-underline="0" font-alignment="1" strokeStyle="0" markerStart="0" markerEnd="0" shadowEnabled="0" shadowOffsetX="0" shadowOffsetY="2" shadowBlur="4" shadowOpacity="160" blurEnabled="0" blurRadius="4" transform="matrix(1,0,0,1,489.708,240.962)" pers-center="0,0" pers-size="0,0" pers-start="0,0" pers-end="0,0" locked="0" mesh="" flag=""/>
            <path id="shapePath2" d="M488.224,269.622 C493.353,269.622 497.567,269.089 500.868,268.022 C506.759,266.042 511.583,262.233 515.341,256.597 C518.337,252.077 520.495,246.288 521.815,239.229 C522.577,235.015 522.958,231.104 522.958,227.499 C522.958,213.636 520.203,202.87 514.693,195.202 C509.184,187.534 500.31,183.7 488.071,183.7 L461.183,183.7 L461.183,269.622 L488.224,269.622 M445.948,170.675 L491.271,170.675 C506.657,170.675 518.591,176.134 527.071,187.052 C534.638,196.903 538.421,209.522 538.421,224.909 C538.421,236.792 536.187,247.532 531.718,257.13 C523.847,274.091 510.313,282.571 491.118,282.571 L445.948,282.571 L445.948,170.675 Z" style="stroke:none;fill-rule:nonzero;fill:url(#linearGradientFill2);fill-opacity:1;"/><defs><linearGradient id="linearGradientFill2" gradientUnits="userSpaceOnUse" x1="556.708" y1="300.962" x2="461.708" y2="216.962"><stop offset="0" stop-color="#000000" stop-opacity="1"/><stop offset="1" stop-color="#ffffff" stop-opacity="1"/></linearGradient></defs>
        </g>
    </g>
</svg>
